<?xml version="1.0" encoding="UTF-8" standalone="no"?>
<!-- Created with Inkscape (http://www.inkscape.org/) -->

<svg
   width="284.27203mm"
   height="284.27203mm"
   viewBox="0 0 284.27203 284.27203"
   version="1.1"
   id="svg5"
   xml:space="preserve"
   xmlns="http://www.w3.org/2000/svg"
   xmlns:svg="http://www.w3.org/2000/svg"><defs
     id="defs2" /><g
     id="g4"><path
       stroke="#848484"
       d="M 79.951508,4.441751 H 239.85454 M 71.068008,13.325252 h 8.8835 m 151.019532,0 h 8.8835 M 62.184508,22.208754 h 8.8835 m 151.019522,0 h 17.76701 M 53.301008,31.092255 h 8.8835 m 159.903022,0 h 17.76701 M 53.301008,39.975756 h 8.8835 m 17.767,0 H 204.32053 m 17.767,0 h 17.76701 M 53.301008,48.859257 h 8.8835 m 159.903022,0 h 17.76701 M 53.301008,57.742759 h 8.8835 m 159.903022,0 h 17.76701 M 53.301008,66.62626 h 8.8835 m 159.903022,0 h 17.76701 m -186.553532,8.8835 h 8.8835 m 159.903022,0 h 17.76701 m -186.553532,8.8835 h 8.8835 m 159.903022,0 h 17.76701 m -186.553532,8.8835 h 8.8835 m 159.903022,0 h 17.76701 m -186.553532,8.88351 h 8.8835 m 159.903022,0 h 17.76701 m -186.553532,8.8835 h 8.8835 m 159.903022,0 h 17.76701 m -186.553532,8.8835 h 8.8835 m 159.903022,0 h 17.76701 m -186.553532,8.8835 h 8.8835 m 159.903022,0 h 17.76701 m -186.553532,8.8835 h 8.8835 m 159.903022,0 h 17.76701 m -186.553532,8.8835 h 8.8835 m 159.903022,0 h 17.76701 m 8.8835,0 h 17.767 m -213.204032,8.8835 H 230.97104 m 8.8835,0 h 17.767 m -26.6505,8.8835 h 17.767 m 8.8835,0 h 8.8835 M 35.534008,173.22828 H 239.85454 m 8.8835,0 h 17.767 m -239.854532,8.8835 h 8.8835 m 204.320532,0 h 26.6505 m -239.854532,8.8835 h 8.8835 m 204.320532,0 h 26.6505 m -239.854532,8.8835 h 8.8835 m 97.718512,0 h 88.83501 m 17.76701,0 h 26.6505 m -239.854532,8.8835 h 8.8835 m 186.553522,0 h 53.30101 m -248.738032,8.8835 h 8.8835 m 26.6505,0 h 17.767 m 124.369022,0 h 8.8835 m 35.53401,0 h 8.8835 m 17.767,0 h 8.8835 m -257.621532,8.8835 h 26.6505 m 17.767,0 h 8.8835 m 17.76701,0 h 8.883502 m 17.767,0 h 8.8835 m 17.767,0 h 8.88351 m 17.767,0 h 8.8835 m 8.8835,0 h 79.95151 m -257.621542,8.8835 h 8.88351 m 8.8835,0 h 8.8835 m 17.767,0 h 8.8835 m 17.767,0 h 8.88351 m 17.767002,0 h 8.8835 m 17.767,0 h 8.8835 m 17.76701,0 h 8.8835 m 8.8835,0 h 8.8835 m 62.18451,0 h 17.767 M 8.883498,244.29629 h 8.8835 m 8.88351,0 h 8.8835 m 8.8835,0 h 17.767 m 8.8835,0 h 17.767 m 17.767012,0 h 8.8835 m 8.8835,0 h 17.767 m 8.8835,0 h 17.76701 m 79.95151,0 h 26.6505 M 0,253.17979 h 8.883498 m 168.786532,0 h 8.8835 m 53.30101,0 h 26.6505 M 0,262.06329 h 8.883498 m 168.786532,0 h 79.95151 m -26.6505,8.8835 h 8.8835"
       id="path1051"
       style="stroke-width:8.8835;shape-rendering:crispEdges;stroke:#7c6f64;stroke-opacity:1" /><path
       stroke="#c6c6c6"
       d="M 79.951508,13.325252 H 222.08753 M 71.068008,31.092255 H 222.08753 M 71.068008,39.975756 h 8.8835 m 133.252522,0 h 8.8835 M 71.068008,48.859257 h 8.8835 m 133.252522,0 h 8.8835 M 71.068008,57.742759 h 8.8835 m 133.252522,0 h 8.8835 M 71.068008,66.62626 h 8.8835 m 133.252522,0 h 8.8835 m -151.019522,8.8835 h 8.8835 m 133.252522,0 h 8.8835 m -151.019522,8.8835 h 8.8835 m 133.252522,0 h 8.8835 m -151.019522,8.8835 h 8.8835 m 133.252522,0 h 8.8835 m -151.019522,8.88351 h 8.8835 m 133.252522,0 h 8.8835 m -151.019522,8.8835 h 8.8835 m 133.252522,0 h 8.8835 m -151.019522,8.8835 h 8.8835 m 133.252522,0 h 8.8835 m -151.019522,8.8835 h 8.8835 m 133.252522,0 h 8.8835 m -151.019522,8.8835 h 8.8835 m 133.252522,0 h 8.8835 m -151.019522,8.8835 H 222.08753 m 35.53401,8.8835 h 8.8835 m -17.767,8.8835 h 8.8835 m -17.767,8.88351 h 8.8835 m -204.320532,17.767 H 239.85454 m -195.437032,8.8835 h 88.835012 m 88.83501,0 h 17.76701 m -195.437032,8.8835 h 17.767 m 17.767,0 h 53.301012 m -88.835012,8.8835 h 17.767 m 17.767,0 H 204.32053 m 8.8835,0 h 8.8835 m 17.76701,0 h 8.8835 m 17.767,0 h 8.8835 m -88.83501,35.53401 h 8.8835 m 35.53401,0 h 8.8835 M 8.883498,262.06329 H 177.67003 m 8.8835,8.8835 h 44.41751"
       id="path1053"
       style="stroke-width:8.8835;shape-rendering:crispEdges;stroke:#a89984;stroke-opacity:1" /><path
       stroke="#ffffff"
       d="m 222.08753,13.325252 h 8.88351 M 71.068008,22.208754 H 222.08753 M 62.184508,31.092255 h 8.8835 m -8.8835,8.883501 h 8.8835 m 133.252522,0 h 8.8835 M 62.184508,48.859257 h 8.8835 m 133.252522,0 h 8.8835 M 62.184508,57.742759 h 8.8835 m 133.252522,0 h 8.8835 M 62.184508,66.62626 h 8.8835 m 133.252522,0 h 8.8835 m -151.019522,8.8835 h 8.8835 m 133.252522,0 h 8.8835 m -151.019522,8.8835 h 8.8835 m 133.252522,0 h 8.8835 m -151.019522,8.8835 h 8.8835 m 133.252522,0 h 8.8835 m -151.019522,8.88351 h 8.8835 m 133.252522,0 h 8.8835 m -151.019522,8.8835 h 8.8835 m 133.252522,0 h 8.8835 m -151.019522,8.8835 h 8.8835 m 133.252522,0 h 8.8835 m -151.019522,8.8835 h 8.8835 m 133.252522,0 h 8.8835 m -151.019522,8.8835 h 8.8835 m 8.8835,0 H 213.20403 m -151.019522,8.8835 h 8.8835 m -35.534,35.53401 H 239.85454 m -204.320532,8.8835 h 8.8835 m -8.8835,8.8835 h 8.8835 m -8.8835,8.8835 h 8.8835 m -8.8835,8.8835 h 8.8835 m 177.670022,0 h 17.76701 m 17.767,0 h 8.8835 m -204.320532,8.8835 h 8.8835 m 17.767,0 h 8.88351 m 17.767002,0 h 8.8835 m 17.767,0 h 8.8835 m 17.76701,0 h 8.8835 m -151.019522,8.8835 h 8.8835 m 17.767,0 h 8.8835 m 17.767,0 h 8.8835 m 17.767012,0 h 8.8835 m 17.767,0 h 8.8835 m 17.76701,0 h 8.8835 m 26.6505,0 h 62.18451 m -239.854542,8.88351 h 8.88351 m 159.903022,0 h 62.18451 M 8.883498,253.17979 H 177.67003 m 17.767,0 h 35.53401"
       id="path1055"
       style="stroke-width:8.8835;shape-rendering:crispEdges;stroke:#d4be98;stroke-opacity:1" /><path
       stroke="#000000"
       d="m 239.85454,13.325252 h 8.8835 m -8.8835,8.883502 h 8.8835 m -8.8835,8.883501 h 8.8835 m -8.8835,8.883501 h 8.8835 M 79.951508,48.859257 H 195.43703 m 44.41751,0 h 8.8835 M 79.951508,57.742759 h 8.8835 m 151.019532,0 h 8.8835 M 79.951508,66.62626 h 8.8835 m 151.019532,0 h 8.8835 m -168.786532,8.8835 h 8.8835 m 151.019532,0 h 8.8835 m -168.786532,8.8835 h 8.8835 m 151.019532,0 h 8.8835 m -168.786532,8.8835 h 8.8835 m 151.019532,0 h 8.8835 m -168.786532,8.88351 h 8.8835 m 151.019532,0 h 8.8835 m -168.786532,8.8835 h 8.8835 m 151.019532,0 h 8.8835 m -168.786532,8.8835 h 8.8835 m 151.019532,0 h 8.8835 m -8.8835,8.8835 h 8.8835 m -8.8835,8.8835 h 8.8835 m -8.8835,8.8835 h 8.8835 m -17.767,8.8835 h 8.8835 m 26.6505,0 h 8.8835 m -222.087532,8.8835 H 230.97104 m 35.534,0 h 8.8835 m -8.8835,8.88351 h 8.8835 m -8.8835,8.8835 h 8.8835 m -8.8835,8.8835 h 8.8835 m -8.8835,8.8835 h 8.8835 m -142.13602,8.8835 h 88.83501 m -168.786522,17.767 h 8.8835 m 17.767,0 h 8.8835 m 17.767012,0 h 8.8835 m 17.767,0 h 8.8835 m 17.76701,0 h 8.8835 m 17.767,0 h 8.8835 m 79.95151,0 h 8.8835 m -239.854532,8.8835 h 8.8835 m 17.767,0 h 8.8835 m 17.76701,0 h 8.883502 m 17.767,0 h 8.8835 m 17.767,0 h 8.88351 m 17.767,0 h 8.8835 m 88.83501,0 h 8.8835 m -248.738032,8.88351 h 8.8835 m 17.767,0 h 8.8835 m 17.767,0 h 8.88351 m 17.767002,0 h 8.8835 m 17.767,0 h 8.8835 m 17.76701,0 h 8.8835 m 97.71851,0 h 8.8835 m -17.767,8.8835 h 8.8835 m -17.767,8.8835 h 8.8835 M 8.883498,270.94679 H 177.67003 m 62.18451,0 h 17.767 m -71.06801,8.8835 h 53.30101"
       id="path1057"
       style="stroke-width:8.8835;shape-rendering:crispEdges;stroke:#282828;stroke-opacity:1" /><path
       stroke="#000084"
       d="m 195.43703,48.859257 h 8.8835 m -8.8835,8.883502 h 8.8835 m -8.8835,8.883501 h 8.8835 m -8.8835,8.8835 h 8.8835 m -8.8835,8.8835 h 8.8835 m -8.8835,8.8835 h 8.8835 m -8.8835,8.88351 h 8.8835 m -8.8835,8.8835 h 8.8835 m -8.8835,8.8835 h 8.8835 m -124.369022,8.8835 H 204.32053"
       id="path1059"
       style="stroke-width:8.8835;shape-rendering:crispEdges;stroke:#2e3b3b;stroke-opacity:1" /><path
       stroke="#0000ff"
       d="M 88.835008,57.742759 H 195.43703 M 88.835008,66.62626 h 8.88351 m 8.883502,0 h 88.83501 m -106.602022,8.8835 h 8.88351 m 8.883502,0 h 88.83501 M 88.835008,84.39326 H 195.43703 M 88.835008,93.27676 H 195.43703 M 88.835008,102.16027 H 195.43703 m -106.602022,8.8835 H 195.43703 m -106.602022,8.8835 H 195.43703"
       id="path1061"
       style="fill:none;fill-opacity:1;stroke-width:8.8835;shape-rendering:crispEdges;stroke:#7daea3;stroke-opacity:1" /><path
       stroke="#01feff"
       d="m 97.718518,66.62626 h 8.883502 m -8.883502,8.8835 h 8.883502"
       id="path1063"
       style="stroke-width:8.8835;shape-rendering:crispEdges;stroke:#87efcc;stroke-opacity:1" /><path
       stroke="#008400"
       d="m 62.184508,208.76228 h 17.767"
       id="path1065"
       style="stroke-width:8.8835;shape-rendering:crispEdges;stroke:#c4de3d;stroke-opacity:1" /><path
       stroke="#838383"
       d="m 97.718518,244.29629 h 8.883502 m 71.06801,0 h 8.8835 m -8.8835,26.6505 h 8.8835"
       id="path1067"
       style="stroke-width:8.8835;shape-rendering:crispEdges;stroke:#7c6f64;stroke-opacity:1" /></g></svg>
