<?xml version="1.0" encoding="UTF-8" standalone="no"?>
<svg
   width="131"
   height="42"
   viewBox="0 0 131 42"
   fill="none"
   version="1.1"
   id="svg26"
   sodipodi:docname="not-by-ai-alternative--gruvbox-material6.svg"
   inkscape:export-filename="../repos/not-by-ai-alternative/not-by-ai-alternative--gruvbox-material.svg"
   inkscape:export-xdpi="96"
   inkscape:export-ydpi="96"
   inkscape:version="1.4 (e7c3feb100, 2024-10-09)"
   xmlns:inkscape="http://www.inkscape.org/namespaces/inkscape"
   xmlns:sodipodi="http://sodipodi.sourceforge.net/DTD/sodipodi-0.dtd"
   xmlns="http://www.w3.org/2000/svg"
   xmlns:svg="http://www.w3.org/2000/svg">
  <defs
     id="defs26" />
  <sodipodi:namedview
     id="namedview26"
     pagecolor="#ffffff"
     bordercolor="#000000"
     borderopacity="0.25"
     inkscape:showpageshadow="2"
     inkscape:pageopacity="0.0"
     inkscape:pagecheckerboard="0"
     inkscape:deskcolor="#d1d1d1"
     inkscape:zoom="2.927292"
     inkscape:cx="87.96526"
     inkscape:cy="33.478041"
     inkscape:window-width="2220"
     inkscape:window-height="1222"
     inkscape:window-x="823"
     inkscape:window-y="1504"
     inkscape:window-maximized="0"
     inkscape:current-layer="svg26">
    <inkscape:page
       x="0"
       y="0"
       width="131"
       height="42"
       id="page2"
       margin="0"
       bleed="0" />
  </sodipodi:namedview>
  <g
     id="g5">
    <rect
       style="fill:#504945;fill-opacity:1;stroke:#a89984;stroke-width:1.542;stroke-linecap:square;stroke-dasharray:none;stroke-opacity:1"
       id="rect1"
       width="129.76572"
       height="40.823009"
       x="0.61714172"
       y="0.77100003" />
    <g
       id="g4">
      <path
         d="m 22.945251,8.7048196 q 0,0.065104 -0.01302,0.1171872 l -1.588537,6.4387862 q -0.02604,0.110676 -0.15625,0.214843 -0.130208,0.09766 -0.240885,0.09766 h -0.585936 q -0.117187,0 -0.247395,-0.104167 -0.130208,-0.104166 -0.156249,-0.214843 L 18.895782,10.5082 18.720001,8.9001316 h -0.364582 l -0.16927,1.6080684 -1.067706,4.746082 q -0.02604,0.110677 -0.15625,0.214843 -0.130208,0.104167 -0.247395,0.104167 h -0.585936 q -0.110677,0 -0.240885,-0.09766 -0.130208,-0.104167 -0.156249,-0.214843 L 14.14319,8.8220068 q -0.01302,-0.052083 -0.01302,-0.1171872 0,-0.3906241 0.423176,-0.3906241 0.3125,0 0.384114,0.3124993 l 1.035154,4.4856652 0.266926,1.933589 h 0.364582 l 0.247396,-1.907547 0.996091,-4.4466032 q 0.02604,-0.1106769 0.156249,-0.2148433 0.130208,-0.1041664 0.240885,-0.1041664 h 0.585936 q 0.117187,0 0.247396,0.1041664 0.130208,0.1041664 0.156249,0.2148433 l 0.989581,4.4466032 0.253906,1.907547 h 0.364582 l 0.260416,-1.933589 1.028643,-4.4856652 q 0.07162,-0.3124993 0.397135,-0.3124993 0.416665,0 0.416665,0.3906241 z m 5.03905,0.019531 q 0,0.4101552 -0.410155,0.4101552 H 27.31373 q -0.696613,0 -1.243487,0.3971344 -0.559894,0.4166656 -0.664061,1.0481746 v 4.583322 q 0,0.410155 -0.410155,0.410155 -0.410155,0 -0.410155,-0.410155 V 8.743882 q 0,-0.4296865 0.410155,-0.4296865 0.410155,0 0.410155,0.4296865 v 0.260416 l -0.17578,0.7421856 0.234374,0.058594 Q 25.562432,9.4665364 25.868421,8.939194 26.532482,8.3141955 27.31373,8.3141955 h 0.260416 q 0.410155,0 0.410155,0.4101553 z m 2.031244,-1.9661409 q 0,0.4101552 -0.410155,0.4101552 -0.410155,0 -0.410155,-0.4101552 V 6.3871171 q 0,-0.4101552 0.410155,-0.4101552 0.410155,0 0.410155,0.4101552 z m -0.04557,8.4635201 q 0,0.403645 -0.410156,0.403645 -0.410155,0 -0.410155,-0.403645 V 8.7243508 q 0,-0.4101553 0.410155,-0.4101553 0.410156,0 0.410156,0.4101553 z m 4.934883,-6.4973792 q 0,0.3515616 -0.351561,0.3515616 H 33.570224 V 15.22173 q 0,0.403645 -0.410155,0.403645 -0.410155,0 -0.410155,-0.403645 V 9.0759124 h -0.97656 q -0.351562,0 -0.351562,-0.3515616 0,-0.3515617 0.351562,-0.3515617 h 0.97656 v -1.985672 q 0,-0.4101552 0.410155,-0.4101552 0.410155,0 0.410155,0.4101552 v 1.985672 h 0.983071 q 0.351561,0 0.351561,0.3515617 z m 4.186188,0 q 0,0.3515616 -0.351562,0.3515616 h -0.98307 V 15.22173 q 0,0.403645 -0.410155,0.403645 -0.410156,0 -0.410156,-0.403645 V 9.0759124 h -0.97656 q -0.351561,0 -0.351561,-0.3515616 0,-0.3515617 0.351561,-0.3515617 h 0.97656 v -1.985672 q 0,-0.4101552 0.410156,-0.4101552 0.410155,0 0.410155,0.4101552 v 1.985672 h 0.98307 q 0.351562,0 0.351562,0.3515617 z m 5.930974,2.9622322 q 0,0.16276 -0.123698,0.286457 -0.123697,0.123698 -0.286457,0.123698 h -3.600252 v 1.30208 q 0,0.611978 0.429687,1.041664 0.429686,0.429687 1.041664,0.429687 h 1.95312 q 0.351562,0 0.351562,0.351561 0,0.351562 -0.351562,0.351562 h -1.95312 q -0.950519,0 -1.62109,-0.670571 -0.670571,-0.670572 -0.670571,-1.62109 v -2.675775 q 0,-0.950518 0.670571,-1.6210892 0.670571,-0.6705713 1.62109,-0.6705713 h 0.253906 q 0.950518,0 1.614579,0.6705713 0.670571,0.6705712 0.670571,1.6210892 z m -0.82031,-0.292968 v -0.904946 q 0,-0.6119774 -0.429687,-1.0416638 -0.423176,-0.4296864 -1.035153,-0.4296864 h -0.253906 q -0.611978,0 -1.041664,0.4296864 -0.429687,0.4296864 -0.429687,1.0416638 v 0.904946 z m 7.519511,3.828115 q 0,0.403645 -0.410155,0.403645 -0.410155,0 -0.410155,-0.403645 v -4.941394 q 0,-0.6119772 -0.390624,-0.950518 -0.351562,-0.3124992 -0.891925,-0.3124992 -0.683592,0 -1.243487,0.4622384 -0.553384,0.455728 -0.66406,1.1002578 v 4.641915 q 0,0.403645 -0.410156,0.403645 -0.410155,0 -0.410155,-0.403645 V 8.743882 q 0,-0.4296865 0.410155,-0.4296865 0.410156,0 0.410156,0.4296865 v 0.3190096 l -0.175781,0.6705712 0.234374,0.058594 Q 47.828,9.6032548 47.886593,9.4470052 48.029822,9.069402 48.179561,8.9326836 48.843622,8.3141955 49.61836,8.3141955 q 0.839841,0 1.432288,0.5143217 0.670571,0.5794256 0.670571,1.5690068 z m 10.208309,-1.673173 q 0,0.989581 -0.670571,1.569007 -0.592446,0.507811 -1.432288,0.507811 -0.781248,0 -1.490882,-0.683592 -0.195312,-0.188802 -0.358072,-0.787758 l -0.234374,0.05859 0.175781,0.631509 v 0.377603 q 0,0.403645 -0.410155,0.403645 -0.410156,0 -0.410156,-0.403645 V 6.3871171 q 0,-0.4296864 0.410156,-0.4296864 0.410155,0 0.410155,0.4296864 V 9.004298 l -0.175781,0.6119776 0.234374,0.1171872 q 0.08464,-0.2864576 0.345052,-0.7552064 0.66406,-0.6640609 1.503902,-0.6640609 0.839842,0 1.432288,0.5143217 0.670571,0.5794256 0.670571,1.5690068 z m -0.82031,0.117188 v -3.385409 q 0,-0.6119772 -0.390624,-0.950518 -0.351562,-0.3124992 -0.891925,-0.3124992 -0.683592,0 -1.243486,0.4622384 -0.553384,0.455728 -0.664061,1.1002578 v 2.727858 q 0.110677,0.65104 0.670571,1.13932 0.559894,0.481769 1.236976,0.481769 0.540363,0 0.891925,-0.312499 0.390624,-0.338541 0.390624,-0.950518 z m 7.467428,-4.9609254 q 0,0.065104 -0.03255,0.1562496 l -3.124992,8.8346128 q -0.09766,0.273437 -0.371093,0.273437 -0.429686,0 -0.429686,-0.390624 0,-0.07161 0.03255,-0.15625 l 1.152341,-2.988273 h -0.104167 q -0.09114,0 -0.221353,-0.08464 -0.130208,-0.09115 -0.16276,-0.175781 L 63.251139,8.87409 q -0.03255,-0.084635 -0.03255,-0.1692704 0,-0.3971345 0.429686,-0.3971345 0.266927,0 0.364583,0.2669264 l 1.341142,3.5937405 0.410155,1.738277 h 0.397135 l 0.410155,-1.738277 1.197914,-3.5807197 q 0.09114,-0.2734368 0.377603,-0.2734368 0.429686,0 0.429686,0.3906241 z m 9.290341,6.5169104 q 0,0.403645 -0.410155,0.403645 -0.410155,0 -0.410155,-0.403645 V 14.8897 l 0.175781,-0.611978 -0.169271,-0.0651 q -0.136718,0.299479 -0.442707,0.735675 -0.794269,0.677082 -1.614579,0.677082 -1.959631,0 -1.959631,-2.044266 0,-1.165361 0.917967,-1.770829 0.774737,-0.507811 1.946609,-0.507811 h 1.145831 V 10.33242 q 0,-0.5208324 -0.364583,-0.8854148 Q 76.317512,9.0759124 75.79668,9.0759124 h -1.562496 q -0.351562,0 -0.351562,-0.3515616 0,-0.3515617 0.351562,-0.3515617 h 1.562496 q 0.859373,0 1.46484,0.6119777 0.605467,0.6054672 0.605467,1.4648402 z m -0.82031,-1.608069 v -1.608069 h -1.145831 q -0.911456,0 -1.47786,0.429687 -0.566405,0.429686 -0.566405,1.14583 0,1.347653 1.13932,1.347653 1.295569,0 2.050776,-1.315101 z M 88.06878,15.22173 q 0,0.403645 -0.410155,0.403645 -0.410155,0 -0.410155,-0.403645 v -4.941394 q 0,-0.6119772 -0.390624,-0.950518 -0.351562,-0.3124992 -0.891925,-0.3124992 -0.677082,0 -1.236976,0.48828 -0.559895,0.4817696 -0.670572,1.1328092 v 4.583322 q 0,0.403645 -0.410155,0.403645 -0.410155,0 -0.410155,-0.403645 V 6.3871171 q 0,-0.4296864 0.410155,-0.4296864 0.410155,0 0.410155,0.4296864 v 2.7343681 l -0.17578,0.6705712 0.234374,0.058594 q 0.05859,-0.1888016 0.117187,-0.3450512 0.143229,-0.3776032 0.292968,-0.5143216 0.729165,-0.6770817 1.438799,-0.6770817 0.839841,0 1.432288,0.5143217 0.670571,0.5794256 0.670571,1.5690068 z m 6.764313,-0.01953 q 0,0.423176 -0.410155,0.423176 -0.410156,0 -0.410156,-0.423176 v -0.31901 l 0.175781,-0.670571 -0.234374,-0.05859 q -0.05859,0.188801 -0.117187,0.345051 -0.143229,0.377603 -0.292968,0.514321 -0.664061,0.611978 -1.438799,0.611978 -0.839842,0 -1.432288,-0.507811 -0.670571,-0.579426 -0.670571,-1.569007 V 8.7243508 q 0,-0.4101553 0.410155,-0.4101553 0.410155,0 0.410155,0.4101553 v 4.9413942 q 0,0.611977 0.390624,0.950518 0.351562,0.312499 0.891925,0.312499 0.683592,0 1.236976,-0.455728 0.559895,-0.462238 0.670571,-1.106768 V 8.7243508 q 0,-0.4101553 0.410156,-0.4101553 0.410155,0 0.410155,0.4101553 z m 10.488257,0.01953 q 0,0.403645 -0.41016,0.403645 -0.41015,0 -0.41015,-0.403645 v -4.941394 q 0,-0.6119772 -0.39063,-0.950518 -0.35156,-0.3124992 -0.89192,-0.3124992 -0.48828,0 -0.97005,0.3971344 -0.42969,0.358072 -0.70964,0.8984348 v 4.908842 q 0,0.403645 -0.41015,0.403645 -0.41016,0 -0.41016,-0.403645 v -4.941394 q 0,-0.6119772 -0.39062,-0.950518 -0.351561,-0.3124992 -0.891925,-0.3124992 -0.48828,0 -0.963539,0.3971344 -0.429686,0.3515616 -0.709633,0.8984348 v 4.908842 q 0,0.403645 -0.410156,0.403645 -0.410155,0 -0.410155,-0.403645 V 8.743882 q 0,-0.4296865 0.410155,-0.4296865 0.410156,0 0.410156,0.4296865 v 0.3190096 l -0.175781,0.683592 0.234374,0.045573 q 0.08464,-0.2994784 0.364583,-0.8072896 0.631508,-0.6705713 1.249996,-0.6705713 1.009115,0 1.575515,0.7747377 0.11719,0.16276 0.11719,0.7552064 v 0.065104 h 0.23437 q 0.0781,-0.3059888 0.30599,-0.7747376 0.72266,-0.8203105 1.54948,-0.8203105 0.83984,0 1.43229,0.5143217 0.67057,0.5794256 0.67057,1.5690068 z m 6.42576,0 q 0,0.403645 -0.41015,0.403645 -0.41016,0 -0.41016,-0.403645 V 14.8897 l 0.17578,-0.611978 -0.16927,-0.0651 q -0.13672,0.299479 -0.44271,0.735675 -0.79427,0.677082 -1.61458,0.677082 -1.95963,0 -1.95963,-2.044266 0,-1.165361 0.91797,-1.770829 0.77474,-0.507811 1.94661,-0.507811 h 1.14583 V 10.33242 q 0,-0.5208324 -0.36458,-0.8854148 -0.36458,-0.3710928 -0.88542,-0.3710928 h -1.56249 q -0.35156,0 -0.35156,-0.3515616 0,-0.3515617 0.35156,-0.3515617 h 1.56249 q 0.85938,0 1.46484,0.6119777 0.60547,0.6054672 0.60547,1.4648402 z m -0.82031,-1.608069 v -1.608069 h -1.14583 q -0.91146,0 -1.47786,0.429687 -0.56641,0.429686 -0.56641,1.14583 0,1.347653 1.13932,1.347653 1.29557,0 2.05078,-1.315101 z m 7.6367,1.608069 q 0,0.403645 -0.41015,0.403645 -0.41016,0 -0.41016,-0.403645 v -4.941394 q 0,-0.6119772 -0.39062,-0.950518 -0.35157,-0.3124992 -0.89193,-0.3124992 -0.68359,0 -1.24349,0.4622384 -0.55338,0.455728 -0.66406,1.1002578 v 4.641915 q 0,0.403645 -0.41015,0.403645 -0.41016,0 -0.41016,-0.403645 V 8.743882 q 0,-0.4296865 0.41016,-0.4296865 0.41015,0 0.41015,0.4296865 v 0.3190096 l -0.17578,0.6705712 0.23438,0.058594 q 0.0586,-0.1888016 0.11718,-0.3450512 0.14323,-0.3776032 0.29297,-0.5143216 0.66406,-0.6184881 1.4388,-0.6184881 0.83984,0 1.43229,0.5143217 0.67057,0.5794256 0.67057,1.5690068 z"
         id="text3"
         style="font-size:13.3333px;font-family:'Sys TT';-inkscape-font-specification:'Sys TT, Normal';fill:#ebdbb2;stroke:#282828;stroke-width:0;stroke-linecap:square"
         aria-label="written by a human" />
      <path
         d="m 29.859325,32.854512 q 0,0.645832 -0.656249,0.645832 -0.656249,0 -0.656249,-0.645832 v -7.906237 q 0,-0.979165 -0.624999,-1.520831 -0.5625,-0.5 -1.427081,-0.5 -1.093749,0 -1.989581,0.739583 -0.885415,0.729165 -1.062498,1.760414 v 7.427071 q 0,0.645832 -0.656249,0.645832 -0.656249,0 -0.656249,-0.645832 V 22.489945 q 0,-0.687499 0.656249,-0.687499 0.656249,0 0.656249,0.687499 v 0.510416 l -0.28125,1.072915 0.375,0.09375 q 0.09375,-0.302083 0.1875,-0.552083 0.229166,-0.604165 0.468749,-0.822915 1.062498,-0.989582 2.30208,-0.989582 1.343747,0 2.291663,0.822916 1.072915,0.927082 1.072915,2.510412 z m 10.6354,-3.104162 q 0,1.520831 -1.072915,2.593746 -1.062499,1.072915 -2.583329,1.072915 h -0.40625 q -1.520831,0 -2.593746,-1.072915 Q 32.76557,31.271181 32.76557,29.75035 v -4.281243 q 0,-1.520831 1.072915,-2.593746 1.072915,-1.072915 2.593746,-1.072915 h 0.40625 q 1.52083,0 2.583329,1.072915 1.072915,1.072915 1.072915,2.593746 z m -1.312498,0.1875 v -4.656243 q 0,-0.979165 -0.687499,-1.666664 -0.677082,-0.687499 -1.656247,-0.687499 h -0.40625 q -0.979165,0 -1.666664,0.687499 -0.687499,0.687499 -0.687499,1.666664 v 4.656243 q 0,0.979165 0.687499,1.666664 0.687499,0.687499 1.666664,0.687499 h 0.40625 q 0.979165,0 1.656247,-0.687499 0.687499,-0.687499 0.687499,-1.666664 z m 8.854152,-7.479155 q 0,0.562499 -0.562499,0.562499 h -1.572914 v 9.833318 q 0,0.645832 -0.656249,0.645832 -0.656249,0 -0.656249,-0.645832 v -9.833318 h -1.562497 q -0.5625,0 -0.5625,-0.562499 0,-0.562499 0.5625,-0.562499 h 1.562497 v -3.177078 q 0,-0.656249 0.656249,-0.656249 0.656249,0 0.656249,0.656249 v 3.177078 h 1.572914 q 0.562499,0 0.562499,0.562499 z m 15.39581,7.718738 q 0,1.583331 -1.072915,2.510413 -0.947915,0.812498 -2.291663,0.812498 -1.249998,0 -2.385413,-1.093748 -0.312499,-0.302083 -0.572916,-1.260414 l -0.374999,0.09375 0.28125,1.010415 v 0.604166 q 0,0.645832 -0.656249,0.645832 -0.656249,0 -0.656249,-0.645832 V 18.719118 q 0,-0.687499 0.656249,-0.687499 0.656249,0 0.656249,0.687499 v 4.187493 l -0.28125,0.979165 0.374999,0.1875 q 0.135417,-0.458333 0.552083,-1.208331 1.062498,-1.062499 2.406246,-1.062499 1.343748,0 2.291663,0.822916 1.072915,0.927082 1.072915,2.510412 z m -1.312498,0.1875 v -5.416658 q 0,-0.979165 -0.624999,-1.520831 -0.562499,-0.5 -1.427081,-0.5 -1.093748,0 -1.98958,0.739583 -0.885415,0.729165 -1.062498,1.760414 v 4.364576 q 0.177083,1.041665 1.072914,1.822914 0.895832,0.770832 1.979164,0.770832 0.864582,0 1.427081,-0.499999 0.624999,-0.541666 0.624999,-1.520831 z m 11.947897,-7.937488 q 0,0.104167 -0.05208,0.25 l -4.999992,14.135394 q -0.15625,0.4375 -0.593749,0.4375 -0.687499,0 -0.687499,-0.624999 0,-0.114584 0.05208,-0.25 l 1.843747,-4.781243 h -0.166666 q -0.145833,0 -0.354166,-0.135416 -0.208333,-0.145833 -0.260417,-0.28125 l -3.302078,-8.479153 q -0.05208,-0.135416 -0.05208,-0.270833 0,-0.635415 0.687499,-0.635415 0.427083,0 0.583332,0.427082 l 2.14583,5.749991 0.656249,2.781246 h 0.635416 l 0.656249,-2.781246 1.916664,-5.729157 q 0.145833,-0.4375 0.604165,-0.4375 0.687499,0 0.687499,0.624999 z m 12.62498,1.874997 q 0,0.562499 -0.562499,0.562499 -0.562499,0 -0.562499,-0.562499 v -5.583324 q 0,-0.562499 0.562499,-0.562499 0.562499,0 0.562499,0.562499 z m -3.364578,0 q 0,0.562499 -0.562499,0.562499 -0.562499,0 -0.562499,-0.562499 v -5.583324 q 0,-0.562499 0.562499,-0.562499 0.562499,0 0.562499,0.562499 z m 17.37497,8.58332 q 0,0.614582 -0.6875,0.614582 -0.479161,0 -0.614578,-0.447915 L 97.952968,28.19827 H 92.25506 l -1.458331,4.854159 q -0.135416,0.447915 -0.604165,0.447915 -0.687499,0 -0.687499,-0.614582 0,-0.09375 0.04167,-0.229166 l 4.364577,-14.135395 q 0.05208,-0.156249 0.249999,-0.302082 0.208333,-0.15625 0.375,-0.15625 h 1.124998 q 0.166666,0 0.374999,0.15625 0.208333,0.145833 0.260417,0.302082 l 4.364579,14.135395 q 0.0417,0.135416 0.0417,0.229166 z m -2.999992,-5.99999 -0.531249,-1.291665 -0.874998,-2.937495 -0.843749,-3.749994 H 94.74464 l -0.833332,3.749994 -0.885415,2.937495 -0.53125,1.291665 0.145833,0.374999 1.687498,-0.1875 h 1.552081 l 1.67708,0.1875 z m 7.031242,5.96874 q 0,0.645832 -0.65625,0.645832 -0.65625,0 -0.65625,-0.645832 V 18.625368 q 0,-0.656249 0.65625,-0.656249 0.65625,0 0.65625,0.656249 z m 8.52082,-8.55207 q 0,0.562499 -0.5625,0.562499 -0.5625,0 -0.5625,-0.562499 v -5.583324 q 0,-0.562499 0.5625,-0.562499 0.5625,0 0.5625,0.562499 z m -3.36458,0 q 0,0.562499 -0.5625,0.562499 -0.5625,0 -0.5625,-0.562499 v -5.583324 q 0,-0.562499 0.5625,-0.562499 0.5625,0 0.5625,0.562499 z"
         id="text4"
         style="font-size:21.3333px;font-family:'Sys TT';-inkscape-font-specification:'Sys TT, Normal';fill:#ebdbb2;stroke:#282828;stroke-width:0;stroke-linecap:square"
         aria-label="not by &quot;AI&quot;" />
    </g>
  </g>
</svg>
