<?xml version="1.0" encoding="UTF-8" standalone="no"?>
<svg
   width="131"
   height="42"
   viewBox="0 0 131 42"
   fill="none"
   version="1.1"
   id="svg26"
   sodipodi:docname="Written-By-Human-Not-By-AI-Badge-black.svg"
   xmlns:inkscape="http://www.inkscape.org/namespaces/inkscape"
   xmlns:sodipodi="http://sodipodi.sourceforge.net/DTD/sodipodi-0.dtd"
   xmlns="http://www.w3.org/2000/svg"
   xmlns:svg="http://www.w3.org/2000/svg">
  <defs
     id="defs26" />
  <sodipodi:namedview
     id="namedview26"
     pagecolor="#ffffff"
     bordercolor="#000000"
     borderopacity="0.25"
     inkscape:showpageshadow="2"
     inkscape:pageopacity="0.0"
     inkscape:pagecheckerboard="0"
     inkscape:deskcolor="#d1d1d1">
    <inkscape:page
       x="0"
       y="0"
       width="131"
       height="42"
       id="page2"
       margin="0"
       bleed="0" />
  </sodipodi:namedview>
  <path
     d="M 0.5,0.5 H 116 c 8.008,0 14.5,6.49187 14.5,14.5 V 41.5 H 15 C 6.99187,41.5 0.5,35.0081 0.5,27 Z"
     fill="black"
     stroke="#ACACAC"
     id="path1"
     style="fill:#504945;fill-opacity:1;stroke:#ebdbb2;stroke-opacity:1" />
  <path
     d="m 17.9605,24.1575 c 3.4661,2.8068 8.4231,2.8068 11.8892,0 l -1.3402,-1.6549 c -2.6847,2.174 -6.5241,2.174 -9.2088,0 z"
     fill="white"
     id="path2"
     style="fill:#ebdbb2;fill-opacity:1" />
  <path
     d="m 19.404,20.5134 v -2.8769 h 2.1296 v 2.8769 z"
     fill="white"
     id="path3"
     style="fill:#ebdbb2;fill-opacity:1" />
  <path
     d="m 26.012,17.6365 v 2.8769 h 2.1295 v -2.8769 z"
     fill="white"
     id="path4"
     style="fill:#ebdbb2;fill-opacity:1" />
  <path
     fill-rule="evenodd"
     clip-rule="evenodd"
     d="M 35,21.5 C 35,27.8513 29.8513,33 23.5,33 17.1487,33 12,27.8513 12,21.5 12,15.1487 17.1487,10 23.5,10 29.8513,10 35,15.1487 35,21.5 Z m -2.1295,0 c 0,5.1752 -4.1953,9.3705 -9.3705,9.3705 -5.1752,0 -9.3705,-4.1953 -9.3705,-9.3705 0,-5.1752 4.1953,-9.3705 9.3705,-9.3705 5.1752,0 9.3705,4.1953 9.3705,9.3705 z"
     fill="white"
     id="path5"
     style="fill:#ebdbb2;fill-opacity:1" />
  <path
     d="m 42.9754,9.89597 1.0199,3.97073 1.0348,-3.97073 h 1.0002 L 47.07,13.8432 48.1544,9.89597 h 0.8912 l -1.5398,5.03873 h -0.9259 l -1.0794,-3.9002 -1.0447,3.9002 H 43.5299 L 42,9.89597 Z"
     fill="white"
     id="path6"
     style="fill:#ebdbb2;fill-opacity:1" />
  <path
     d="m 49.8156,9.89597 h 0.8466 v 0.87033 c 0.0694,-0.1693 0.2394,-0.3748 0.51,-0.6163 0.2707,-0.24462 0.5826,-0.36694 0.9358,-0.36694 0.0165,0 0.0446,0.00157 0.0842,0.00471 0.0396,0.00313 0.1072,0.00941 0.203,0.01882 v 0.89391 c -0.0528,-0.0094 -0.1024,-0.0157 -0.1486,-0.0188 -0.0429,-0.0032 -0.0907,-0.0048 -0.1435,-0.0048 -0.449,0 -0.7939,0.1381 -1.0349,0.4141 -0.2409,0.2728 -0.3614,0.588 -0.3614,0.9456 v 2.8981 h -0.8912 z"
     fill="white"
     id="path7"
     style="fill:#ebdbb2;fill-opacity:1" />
  <path
     d="m 53.0662,9.9195 h 0.906 v 5.0152 h -0.906 z m 0,-1.89598 h 0.906 v 0.95975 h -0.906 z"
     fill="white"
     id="path8"
     style="fill:#ebdbb2;fill-opacity:1" />
  <path
     d="m 55.4008,8.48928 h 0.9011 v 1.40669 h 0.8466 v 0.69163 h -0.8466 v 3.2885 c 0,0.1757 0.0627,0.2933 0.1881,0.3529 0.0693,0.0345 0.1849,0.0517 0.3466,0.0517 0.0429,0 0.0891,0 0.1386,0 0.0496,-0.0031 0.1073,-0.0078 0.1733,-0.0141 v 0.6681 c -0.1023,0.0282 -0.2096,0.0486 -0.3218,0.0611 -0.1089,0.0126 -0.2277,0.0188 -0.3565,0.0188 -0.4159,0 -0.6981,-0.1003 -0.8466,-0.3011 -0.1486,-0.2038 -0.2228,-0.4673 -0.2228,-0.7903 v -3.3356 h -0.718 V 9.89597 h 0.718 z"
     fill="white"
     id="path9"
     style="fill:#ebdbb2;fill-opacity:1" />
  <path
     d="m 58.1215,8.48928 h 0.9012 v 1.40669 h 0.8466 v 0.69163 h -0.8466 v 3.2885 c 0,0.1757 0.0627,0.2933 0.1881,0.3529 0.0693,0.0345 0.1849,0.0517 0.3466,0.0517 0.0429,0 0.0891,0 0.1386,0 0.0495,-0.0031 0.1073,-0.0078 0.1733,-0.0141 v 0.6681 c -0.1023,0.0282 -0.2096,0.0486 -0.3218,0.0611 -0.1089,0.0126 -0.2278,0.0188 -0.3565,0.0188 -0.4159,0 -0.6981,-0.1003 -0.8466,-0.3011 -0.1486,-0.2038 -0.2229,-0.4673 -0.2229,-0.7903 V 10.5876 H 57.4036 V 9.89597 h 0.7179 z"
     fill="white"
     id="path10"
     style="fill:#ebdbb2;fill-opacity:1" />
  <path
     d="m 62.8723,9.78306 c 0.3763,0 0.7411,0.08469 1.0943,0.25404 0.3531,0.1662 0.6222,0.3827 0.807,0.6493 0.1782,0.254 0.2971,0.5504 0.3565,0.8891 0.0528,0.2321 0.0792,0.6022 0.0792,1.1103 h -3.8867 c 0.0165,0.5113 0.1436,0.9221 0.3813,1.2327 0.2376,0.3073 0.6056,0.461 1.1041,0.461 0.4654,0 0.8367,-0.1458 1.114,-0.4375 0.1584,-0.1694 0.2707,-0.3654 0.3367,-0.5881 h 0.8763 c -0.0231,0.185 -0.1006,0.392 -0.2327,0.621 -0.1287,0.2258 -0.2739,0.4109 -0.4357,0.5552 -0.2706,0.2509 -0.6057,0.4202 -1.0051,0.5081 -0.2145,0.0501 -0.4571,0.0752 -0.7278,0.0752 -0.6602,0 -1.2196,-0.2274 -1.6785,-0.6821 -0.4588,-0.458 -0.6882,-1.0978 -0.6882,-1.9195 0,-0.8092 0.2311,-1.4663 0.6932,-1.9713 0.4621,-0.505 1.0662,-0.75744 1.8121,-0.75744 z m 1.421,2.23004 c -0.0363,-0.367 -0.1204,-0.6603 -0.2525,-0.8798 -0.2442,-0.4077 -0.6519,-0.6116 -1.2229,-0.6116 -0.4093,0 -0.7526,0.1411 -1.0299,0.4234 -0.2772,0.2792 -0.4241,0.6351 -0.4406,1.068 z"
     fill="white"
     id="path11"
     style="fill:#ebdbb2;fill-opacity:1" />
  <path
     d="m 66.2071,9.89597 h 0.8466 v 0.71513 c 0.2509,-0.2948 0.5166,-0.5066 0.7972,-0.63515 0.2806,-0.12859 0.5925,-0.19289 0.9358,-0.19289 0.7525,0 1.2609,0.24934 1.5249,0.74804 0.1453,0.2729 0.2179,0.6634 0.2179,1.1715 v 3.2321 H 69.6234 V 11.759 c 0,-0.3074 -0.0478,-0.5551 -0.1436,-0.7433 -0.1584,-0.3137 -0.4456,-0.4705 -0.8615,-0.4705 -0.2112,0 -0.3845,0.0204 -0.5199,0.0612 -0.2442,0.069 -0.4588,0.207 -0.6436,0.414 -0.1486,0.1662 -0.2459,0.3387 -0.2921,0.5175 -0.0429,0.1756 -0.0644,0.4281 -0.0644,0.7574 v 2.6394 h -0.8912 z"
     fill="white"
     id="path12"
     style="fill:#ebdbb2;fill-opacity:1" />
  <path
     d="m 74.4015,8 h 0.8665 v 2.5076 c 0.1947,-0.2415 0.4275,-0.425 0.6981,-0.55046 0.2707,-0.1286 0.5645,-0.1929 0.8813,-0.1929 0.6602,0 1.1949,0.21642 1.6042,0.64926 0.4126,0.4297 0.6189,1.0648 0.6189,1.9054 0,0.7966 -0.203,1.4584 -0.609,1.9853 -0.406,0.527 -0.9688,0.7904 -1.6883,0.7904 -0.4027,0 -0.7427,-0.0925 -1.02,-0.2776 -0.165,-0.1097 -0.3416,-0.2854 -0.5298,-0.5269 v 0.6446 h -0.8219 z m 2.3172,6.3466 c 0.4819,0 0.8417,-0.1819 1.0794,-0.5458 0.2409,-0.3638 0.3614,-0.8437 0.3614,-1.4396 0,-0.53 -0.1205,-0.9691 -0.3614,-1.3173 -0.2377,-0.3481 -0.5892,-0.5222 -1.0546,-0.5222 -0.406,0 -0.7625,0.1427 -1.0695,0.4281 -0.3037,0.2854 -0.4555,0.7559 -0.4555,1.4114 0,0.4736 0.0627,0.8578 0.1881,1.1527 0.2344,0.5551 0.6718,0.8327 1.3121,0.8327 z"
     fill="white"
     id="path13"
     style="fill:#ebdbb2;fill-opacity:1" />
  <path
     d="m 83.3262,9.89597 h 0.9853 c -0.1254,0.32303 -0.4044,1.06013 -0.8368,2.21123 -0.3234,0.8656 -0.5941,1.5713 -0.812,2.1171 -0.5149,1.2859 -0.878,2.07 -1.0892,2.3523 C 81.3622,16.8589 80.9991,17 80.4842,17 c -0.1254,0 -0.2228,-0.0047 -0.2921,-0.0141 -0.066,-0.0094 -0.1486,-0.0267 -0.2476,-0.0518 v -0.7715 c 0.1552,0.0407 0.2674,0.0658 0.3367,0.0752 0.0693,0.0095 0.1304,0.0142 0.1832,0.0142 0.165,0 0.2855,-0.0267 0.3614,-0.08 0.0793,-0.0502 0.1453,-0.1129 0.1981,-0.1882 0.0165,-0.0251 0.0759,-0.1537 0.1782,-0.3858 0.1024,-0.2321 0.1766,-0.4046 0.2228,-0.5175 L 79.4643,9.89597 h 1.01 l 1.421,4.10243 z"
     fill="white"
     id="path14"
     style="fill:#ebdbb2;fill-opacity:1" />
  <path
     d="m 87.7033,8 h 0.8912 v 2.5781 c 0.2112,-0.254 0.401,-0.4328 0.5694,-0.5363 0.2872,-0.17876 0.6453,-0.26815 1.0744,-0.26815 0.7691,0 1.2906,0.25565 1.5646,0.76685 0.1485,0.2792 0.2228,0.6665 0.2228,1.1621 v 3.2321 h -0.916 V 11.759 c 0,-0.3701 -0.0495,-0.6414 -0.1485,-0.8139 -0.1618,-0.276 -0.4654,-0.414 -0.911,-0.414 -0.3697,0 -0.7048,0.1208 -1.0051,0.3623 -0.3004,0.2415 -0.4506,0.6978 -0.4506,1.369 v 2.6723 h -0.8912 z"
     fill="white"
     id="path15"
     style="fill:#ebdbb2;fill-opacity:1" />
  <path
     d="M 94.1375,9.89597 V 13.241 c 0,0.2572 0.0429,0.4673 0.1287,0.6304 0.1584,0.3011 0.4539,0.4517 0.8863,0.4517 0.6205,0 1.043,-0.2635 1.2675,-0.7904 0.1221,-0.2823 0.1832,-0.6697 0.1832,-1.1621 V 9.89597 h 0.8912 v 5.03873 h -0.8417 l 0.0099,-0.7434 c -0.1155,0.1913 -0.2591,0.3529 -0.4308,0.4846 -0.3399,0.2635 -0.7525,0.3952 -1.2378,0.3952 -0.7558,0 -1.2708,-0.2399 -1.5447,-0.7198 -0.1486,-0.2572 -0.2228,-0.6006 -0.2228,-1.0303 V 9.89597 Z"
     fill="white"
     id="path16"
     style="fill:#ebdbb2;fill-opacity:1" />
  <path
     d="m 98.7892,9.89597 h 0.8814 v 0.71513 c 0.2112,-0.2478 0.4024,-0.4281 0.5744,-0.5411 0.294,-0.19128 0.627,-0.28694 1,-0.28694 0.423,0 0.763,0.0988 1.02,0.29644 0.145,0.1129 0.277,0.2791 0.396,0.4986 0.198,-0.2697 0.431,-0.4688 0.698,-0.59744 0.268,-0.13173 0.568,-0.1976 0.901,-0.1976 0.713,0 1.199,0.24464 1.456,0.73394 0.139,0.2634 0.208,0.6179 0.208,1.0632 v 3.3545 h -0.926 v -3.5003 c 0,-0.3356 -0.089,-0.5661 -0.267,-0.6916 -0.175,-0.1254 -0.39,-0.1882 -0.644,-0.1882 -0.35,0 -0.652,0.1114 -0.906,0.3341 -0.251,0.2226 -0.376,0.5943 -0.376,1.115 v 2.931 h -0.906 v -3.2886 c 0,-0.3419 -0.043,-0.5912 -0.129,-0.748 -0.135,-0.2353 -0.388,-0.3529 -0.758,-0.3529 -0.336,0 -0.643,0.1239 -0.921,0.3717 -0.2736,0.2478 -0.4105,0.6963 -0.4105,1.3455 v 2.6723 h -0.8913 z"
     fill="white"
     id="path17"
     style="fill:#ebdbb2;fill-opacity:1" />
  <path
     d="m 107.818,13.5938 c 0,0.2447 0.094,0.4376 0.282,0.5787 0.188,0.1411 0.411,0.2117 0.669,0.2117 0.313,0 0.617,-0.069 0.911,-0.207 0.495,-0.229 0.742,-0.6038 0.742,-1.1244 v -0.6822 c -0.109,0.0659 -0.249,0.1208 -0.421,0.1647 -0.171,0.0439 -0.34,0.0753 -0.505,0.0941 l -0.539,0.0658 c -0.324,0.0408 -0.566,0.1051 -0.728,0.1929 -0.274,0.1474 -0.411,0.3827 -0.411,0.7057 z m 2.159,-1.7125 c 0.204,-0.0251 0.341,-0.1066 0.411,-0.2446 0.039,-0.0753 0.059,-0.1835 0.059,-0.3246 0,-0.2886 -0.109,-0.4971 -0.327,-0.6257 -0.214,-0.1318 -0.523,-0.1976 -0.926,-0.1976 -0.465,0 -0.795,0.1191 -0.99,0.3575 -0.109,0.1317 -0.18,0.3278 -0.213,0.5881 h -0.832 c 0.017,-0.621 0.228,-1.0523 0.634,-1.2938 0.409,-0.24462 0.883,-0.36695 1.421,-0.36695 0.624,0 1.131,0.11292 1.52,0.33875 0.386,0.2258 0.579,0.5771 0.579,1.0538 v 2.9028 c 0,0.0878 0.019,0.1584 0.055,0.2117 0.04,0.0533 0.12,0.08 0.243,0.08 0.039,0 0.084,-0.0016 0.133,-0.0047 0.05,-0.0063 0.103,-0.0141 0.159,-0.0235 v 0.6257 c -0.139,0.0376 -0.245,0.0611 -0.317,0.0706 -0.073,0.0094 -0.172,0.0141 -0.297,0.0141 -0.307,0 -0.53,-0.1035 -0.669,-0.3105 -0.072,-0.1098 -0.124,-0.2651 -0.153,-0.4658 -0.182,0.2258 -0.443,0.4218 -0.783,0.5881 -0.34,0.1662 -0.714,0.2493 -1.123,0.2493 -0.492,0 -0.895,-0.1411 -1.209,-0.4234 -0.31,-0.2854 -0.465,-0.6414 -0.465,-1.0679 0,-0.4674 0.154,-0.8296 0.461,-1.0868 0.306,-0.2572 0.709,-0.4156 1.208,-0.4752 z"
     fill="white"
     id="path18"
     style="fill:#ebdbb2;fill-opacity:1" />
  <path
     d="m 112.678,9.89597 h 0.846 v 0.71513 c 0.251,-0.2948 0.517,-0.5066 0.797,-0.63515 0.281,-0.12859 0.593,-0.19289 0.936,-0.19289 0.753,0 1.261,0.24934 1.525,0.74804 0.145,0.2729 0.218,0.6634 0.218,1.1715 v 3.2321 h -0.906 V 11.759 c 0,-0.3074 -0.048,-0.5551 -0.144,-0.7433 -0.158,-0.3137 -0.445,-0.4705 -0.861,-0.4705 -0.211,0 -0.385,0.0204 -0.52,0.0612 -0.244,0.069 -0.459,0.207 -0.644,0.414 -0.148,0.1662 -0.246,0.3387 -0.292,0.5175 -0.043,0.1756 -0.064,0.4281 -0.064,0.7574 v 2.6394 h -0.891 z"
     fill="white"
     id="path19"
     style="fill:#ebdbb2;fill-opacity:1" />
  <path
     fill-rule="evenodd"
     clip-rule="evenodd"
     d="M 93.3281,32.0851 97.95,19 h 3.058 l 4.586,13.0851 h -2.934 l -0.835,-2.6898 h -4.7713 l -0.8962,2.6898 z m 6.1244,-10.0935 -1.6695,5.1489 h 3.286 z"
     fill="white"
     id="path20"
     style="fill:#ebdbb2;fill-opacity:1" />
  <path
     fill-rule="evenodd"
     clip-rule="evenodd"
     d="m 77.602,22.1958 c 1.2595,0 2.2436,0.4587 2.9524,1.376 0.7147,0.9173 1.072,2.101 1.072,3.5509 0,1.5032 -0.3515,2.749 -1.0544,3.7374 -0.703,0.9883 -1.6842,1.4825 -2.9436,1.4825 -0.7908,0 -1.4264,-0.1598 -1.9067,-0.4794 -0.2871,-0.1894 -0.5975,-0.5208 -0.9314,-0.9943 v 1.2162 H 72.3388 V 19.0178 h 2.4954 v 4.6517 c 0.3163,-0.4498 0.6649,-0.7931 1.0456,-1.0298 0.4511,-0.2959 1.0252,-0.4439 1.7222,-0.4439 z m -0.6414,8.0606 c 0.6444,0 1.1452,-0.2634 1.5025,-0.7901 0.3574,-0.5267 0.536,-1.2191 0.536,-2.0773 0,-0.6865 -0.0878,-1.2546 -0.2636,-1.7044 -0.3339,-0.8522 -0.9489,-1.2783 -1.8452,-1.2783 -0.908,0 -1.5318,0.4172 -1.8716,1.2517 -0.1757,0.4438 -0.2636,1.0179 -0.2636,1.7222 0,0.8285 0.1816,1.515 0.5448,2.0595 0.3632,0.5445 0.9168,0.8167 1.6607,0.8167 z"
     fill="white"
     id="path21"
     style="fill:#ebdbb2;fill-opacity:1" />
  <path
     d="M 66.5236,30.1587 C 66.424,30.0581 66.3742,29.8096 66.3742,29.4131 v -5.1134 h 1.5553 v -1.802 H 66.3742 V 19.799 h -2.4778 v 2.6987 h -1.3356 v 1.802 h 1.3356 v 5.9567 c 0,0.6037 0.1406,1.0505 0.4217,1.3405 0.4335,0.4557 1.2419,0.6628 2.4252,0.6214 l 1.1862,-0.0444 V 30.283 c -0.082,0.0059 -0.1669,0.0119 -0.2548,0.0178 h -0.2373 c -0.5096,0 -0.8142,-0.0474 -0.9138,-0.1421 z"
     fill="white"
     id="path22"
     style="fill:#ebdbb2;fill-opacity:1" />
  <path
     fill-rule="evenodd"
     clip-rule="evenodd"
     d="m 62.4634,27.2648 c 0,1.4203 -0.4042,2.6365 -1.2125,3.6485 -0.8084,1.0061 -2.0357,1.5092 -3.6817,1.5092 -1.6461,0 -2.8733,-0.5031 -3.6817,-1.5092 -0.8084,-1.012 -1.2125,-2.2282 -1.2125,-3.6485 0,-1.3967 0.4041,-2.607 1.2125,-3.6309 0.8084,-1.0238 2.0356,-1.5357 3.6817,-1.5357 1.646,0 2.8733,0.5119 3.6817,1.5357 0.8083,1.0239 1.2125,2.2342 1.2125,3.6309 z m -4.903,3.036 c 0.7322,0 1.2946,-0.2634 1.6871,-0.7901 0.3924,-0.5267 0.5887,-1.2754 0.5887,-2.2459 0,-0.9706 -0.1963,-1.7163 -0.5887,-2.2371 -0.3925,-0.5267 -0.9549,-0.7901 -1.6871,-0.7901 -0.7322,0 -1.2975,0.2634 -1.6958,0.7901 -0.3925,0.5208 -0.5888,1.2665 -0.5888,2.2371 0,0.9705 0.1963,1.7192 0.5888,2.2459 0.3983,0.5267 0.9636,0.7901 1.6958,0.7901 z"
     fill="white"
     id="path23"
     style="fill:#ebdbb2;fill-opacity:1" />
  <path
     d="m 48.2896,22.1781 c 0.99,0 1.7984,0.2633 2.4252,0.79 0.6326,0.5208 0.949,1.3879 0.949,2.6011 v 6.5159 H 49.098 v -5.8856 c 0,-0.509 -0.0673,-0.8996 -0.2021,-1.1718 -0.246,-0.4972 -0.7146,-0.7457 -1.4059,-0.7457 -0.8493,0 -1.4322,0.364 -1.7485,1.0919 -0.164,0.3847 -0.2461,0.8759 -0.2461,1.4736 v 5.2376 H 43 v -9.6585 h 2.4164 v 1.4115 c 0.3221,-0.4971 0.6268,-0.8552 0.9138,-1.0741 0.5155,-0.3906 1.1686,-0.5859 1.9594,-0.5859 z"
     fill="white"
     id="path24"
     style="fill:#ebdbb2;fill-opacity:1" />
  <path
     d="m 83.4108,33.9582 -0.3163,-0.0177 v 2.024 c 0.2694,0.0177 0.4715,0.0266 0.6063,0.0266 0.1347,0.0059 0.3134,0.0089 0.536,0.0089 1.1071,0 1.8452,-0.2219 2.2142,-0.6658 0.3691,-0.4379 0.8699,-1.5742 1.5026,-3.4089 l 3.2862,-9.5164 h -2.6624 l -1.977,7.1373 -2.0912,-7.1373 h -2.7855 l 3.5148,10.1023 c 0.0234,0.071 -0.0293,0.2663 -0.1582,0.5859 -0.123,0.3196 -0.2578,0.5297 -0.4042,0.6303 -0.1523,0.1065 -0.3398,0.1746 -0.5623,0.2042 -0.2226,0.0296 -0.457,0.0385 -0.703,0.0266 z"
     fill="white"
     id="path25"
     style="fill:#ebdbb2;fill-opacity:1" />
  <path
     d="m 107.902,29.8624 v -8.6366 h -1.596 V 19 H 112 v 2.2258 h -1.41 v 8.6366 H 112 v 2.2258 h -5.694 v -2.2258 z"
     fill="white"
     id="path26"
     style="fill:#ebdbb2;fill-opacity:1" />
</svg>
