<?xml version="1.0" encoding="UTF-8" standalone="no"?>
<svg
   width="131"
   height="42"
   viewBox="0 0 131 42"
   fill="none"
   version="1.1"
   id="svg26"
   sodipodi:docname="Written-By-Human-Not-By-AI-Badge-black.svg"
   inkscape:export-filename="../repos/not-by-ai-alternative/not-by-ai-alternative--gruvbox-material.svg"
   inkscape:export-xdpi="96"
   inkscape:export-ydpi="96"
   inkscape:version="1.4 (e7c3feb100, 2024-10-09)"
   xmlns:inkscape="http://www.inkscape.org/namespaces/inkscape"
   xmlns:sodipodi="http://sodipodi.sourceforge.net/DTD/sodipodi-0.dtd"
   xmlns="http://www.w3.org/2000/svg"
   xmlns:svg="http://www.w3.org/2000/svg">
  <defs
     id="defs26" />
  <sodipodi:namedview
     id="namedview26"
     pagecolor="#ffffff"
     bordercolor="#000000"
     borderopacity="0.25"
     inkscape:showpageshadow="2"
     inkscape:pageopacity="0.0"
     inkscape:pagecheckerboard="0"
     inkscape:deskcolor="#d1d1d1"
     inkscape:zoom="7.1835004"
     inkscape:cx="79.905335"
     inkscape:cy="36.611678"
     inkscape:window-width="2220"
     inkscape:window-height="1222"
     inkscape:window-x="823"
     inkscape:window-y="1504"
     inkscape:window-maximized="0"
     inkscape:current-layer="svg26">
    <inkscape:page
       x="0"
       y="0"
       width="131"
       height="42"
       id="page2"
       margin="0"
       bleed="0" />
  </sodipodi:namedview>
  <g
     id="g5"
     transform="translate(0,0.18250477)">
    <rect
       style="fill:#504945;fill-opacity:1;stroke:#a89984;stroke-width:1.542;stroke-linecap:square;stroke-dasharray:none;stroke-opacity:1"
       id="rect1"
       width="129.76572"
       height="40.823009"
       x="0.61714172"
       y="0.58849525" />
    <g
       id="g4"
       transform="translate(38.032507,87.819154)">
      <path
         d="m -22.995489,-79.439303 h -0.665366 v -1.330731 h 0.665366 z m 4.001309,0 h -0.669923 v -1.330731 h 0.669923 z m 3.996752,0 h -0.665366 v -1.330731 h 0.665366 z m -7.332695,2.000655 h -0.665366 v -2.000655 h 0.665366 z m 2.66602,0 h -0.665366 v -2.000655 h 0.665366 z m 1.335289,0 h -0.665366 v -2.000655 h 0.665366 z m 2.66602,0 h -0.665365 v -2.000655 h 0.665365 z m -6.001964,2.000655 h -0.665365 v -2.000655 h 0.665365 z m 1.335289,0 h -0.665366 v -2.000655 h 0.665366 z m 2.666021,0 h -0.665366 v -2.000655 h 0.665366 z m 1.335289,0 h -0.669924 v -2.000655 h 0.669924 z m -4.666676,1.330731 h -0.669923 v -1.330731 h 0.669923 z m 3.996752,0 h -0.665365 v -1.330731 h 0.665365 z m 3.664069,0 h -0.665366 v -6.662772 h 0.665366 v 1.330731 h 0.665366 v 0.665366 h -0.665366 z m 2.666021,-5.997406 h -1.335289 v -0.665366 h 1.335289 z m -1.335289,0.665365 h -0.665366 v -0.665365 h 0.665366 z m 2.9987036,-2.333337 h -0.6653658 v -1.330732 h 0.6653658 z m 0,7.665378 h -0.6653658 v -6.662772 h 0.6653658 z m 2.6614624,-0.665365 h -0.6653658 v -5.332041 h -0.9980487 v -0.665366 h 0.9980487 v -2.000655 h 0.6653658 v 2.000655 h 1.6679717 v 0.665366 H -6.343116 Z m 1.6679717,0.665365 H -6.343116 v -0.665365 h 1.6679717 z m 1.9960975,-0.665365 h -0.6653658 v -5.332041 h -0.9980487 v -0.665366 h 0.9980487 v -2.000655 h 0.6653658 v 2.000655 h 1.6679717 v 0.665366 h -1.6679717 z m 1.6679717,0.665365 h -1.6679717 v -0.665365 h 1.6679717 z m 4.6621188,-5.997406 H 0.98502329 v -0.665366 H 3.6510437 Z m -2.66602041,0.665365 H 0.3196575 v -0.665365 h 0.66536579 z m 3.33594351,0 H 3.6510437 v -0.665365 h 0.6699231 z m -4.0013093,4.00131 h -0.66536578 v -4.00131 H 0.3196575 v 1.335289 h 4.0013093 v -1.335289 h 0.6653658 v 2.000655 H 0.3196575 Z m 4.6666751,0 H 4.3209668 v -1.002606 h 0.6653658 z m -4.00130931,0.665366 H 0.3196575 v -0.665366 h 0.66536579 z m 3.33594351,0 H 3.6510437 v -0.665366 h 0.6699231 z m -0.6699231,0.665365 H 0.98502329 v -0.665365 H 3.6510437 Z m 3.331385,0 H 6.3170629 v -6.662772 h 0.6653658 v 1.330731 h 0.6653658 v 0.665366 H 6.9824287 Z m 3.3313863,-5.997406 H 8.3131603 v -0.665366 h 2.0006547 z m -2.0006547,0.665365 H 7.6477945 v -0.665365 h 0.6653658 z m 2.6705777,0 h -0.669923 v -0.665365 h 0.669923 z m 0.665366,5.332041 h -0.665366 v -5.332041 h 0.665366 z m 5.322928,0 h -0.665366 v -9.33335 h 0.665366 v 4.001309 h 0.665366 v 0.665366 h -0.665366 v 2.670578 h 0.665366 v 0.665366 h -0.665366 z m 3.331386,-5.997406 h -2.000655 v -0.665366 h 2.000655 z m -2.000655,0.665365 h -0.665365 v -0.665365 h 0.665365 z m 2.670578,0 h -0.669923 v -0.665365 h 0.669923 z m 0.665366,4.00131 h -0.665366 v -4.00131 h 0.665366 z m -3.335944,0.665366 h -0.665365 v -0.665366 h 0.665365 z m 2.670578,0 h -0.669923 v -0.665366 h 0.669923 z m -0.669923,0.665365 h -2.000655 v -0.665365 h 2.000655 z m 2.66602,-5.332041 h -0.665365 v -1.330731 h 0.665365 z m 5.332041,0 h -0.665365 v -1.330731 h 0.665365 z m -4.666675,1.335289 h -0.665366 v -1.335289 h 0.665366 z m 4.00131,0 h -0.665366 v -1.335289 h 0.665366 z m -3.335944,1.330732 h -0.665366 v -1.330732 h 0.665366 z m 2.670578,0 h -0.669923 v -1.330732 h 0.669923 z m -2.000655,1.335289 H 24.30017 v -1.335289 h 0.669923 z m 1.330732,0 h -0.665366 v -1.335289 h 0.665366 z m -0.665366,1.330731 h -0.665366 v -1.330731 h 0.665366 z m -0.665366,1.330732 H 24.30017 v -1.330732 h 0.669923 z m -0.669923,0.665366 h -0.665366 v -0.665366 h 0.665366 z m -0.665366,0.669923 h -1.330731 v -0.669923 h 1.330731 z m 12.988305,-8.663427 h -2.666021 v -0.665366 h 2.666021 z m -2.666021,0.665365 h -0.665366 v -0.665365 h 0.665366 z m 3.335944,0 h -0.669923 v -0.665365 h 0.669923 z m -4.00131,0.665366 h -0.665365 v -0.665366 h 0.665365 z m 4.666676,4.00131 h -0.665366 v -0.665366 h -0.669923 v -0.665366 h 0.669923 v -2.000655 h -0.669923 v -0.669923 h 0.669923 v -0.665366 h 0.665366 z m -1.335289,-2.666021 h -2.666021 v -0.665366 h 2.666021 z m -2.666021,0.665366 h -0.665366 v -0.665366 h 0.665366 z m -0.665366,1.335289 h -0.665365 v -1.335289 h 0.665365 z m 0.665366,0.665366 h -0.665366 v -0.665366 h 0.665366 z m 2.666021,0 h -0.665366 v -0.665366 h 0.665366 z m -0.665366,0.665365 h -2.000655 v -0.665365 h 2.000655 z m 2.66602,0 h -0.665365 v -0.665365 h 0.665365 z m 4.99024,0 h -0.665365 v -9.33335 h 0.665365 v 4.001309 h 0.665366 v 0.665366 h -0.665366 z m 3.331387,-5.997406 h -2.000655 v -0.665366 h 2.000655 z m -2.000655,0.665365 h -0.665366 v -0.665365 h 0.665366 z m 2.670578,0 H 46.94539 v -0.665365 h 0.669923 z m 0.665365,5.332041 h -0.665365 v -5.332041 h 0.665365 z m 1.996098,-1.330731 h -0.665365 v -5.332041 h 0.665365 z m 4.666676,1.330731 h -0.665366 v -1.330731 h -0.669923 v -0.665366 h 0.669923 v -4.666675 h 0.665366 z m -4.00131,-0.665365 h -0.665366 v -0.665366 h 0.665366 z m 2.666021,0 h -0.665366 v -0.665366 h 0.665366 z m -0.665366,0.665365 h -2.000655 v -0.665365 h 2.000655 z m 3.996753,0 h -0.665366 v -6.662772 h 0.665366 v 1.330731 h 0.665365 v 0.665366 H 56.93955 Z m 2.66602,-5.997406 h -1.335289 v -0.665366 h 1.335289 z m 4.001309,0 h -2.000654 v -0.665366 h 2.000654 z m -5.336598,0.665365 h -0.665366 v -0.665365 h 0.665366 z m 2.000655,0 H 59.60557 v -0.665365 h 0.665366 z m 1.335289,0 h -0.665366 v -0.665365 h 0.665366 z m 2.66602,0 h -0.665366 v -0.665365 h 0.665366 z m -3.331386,5.332041 h -0.669923 v -5.332041 h 0.669923 z m 3.996752,0 h -0.665366 v -5.332041 h 0.665366 z m 5.327488,-5.997406 h -2.66602 v -0.665366 h 2.66602 z m -2.66602,0.665365 h -0.665366 v -0.665365 h 0.665366 z m 3.335943,0 h -0.669923 v -0.665365 h 0.669923 z m -4.001309,0.665366 h -0.665366 v -0.665366 h 0.665366 z m 4.666675,4.00131 h -0.665366 v -0.665366 h -0.669923 v -0.665366 h 0.669923 v -2.000655 h -0.669923 v -0.669923 h 0.669923 v -0.665366 h 0.665366 z m -1.335289,-2.666021 h -2.66602 v -0.665366 h 2.66602 z m -2.66602,0.665366 h -0.665366 v -0.665366 h 0.665366 z m -0.665366,1.335289 h -0.665366 v -1.335289 h 0.665366 z m 0.665366,0.665366 h -0.665366 v -0.665366 h 0.665366 z m 2.66602,0 h -0.665365 v -0.665366 h 0.665365 z m -0.665365,0.665365 h -2.000655 v -0.665365 h 2.000655 z m 2.66602,0 h -0.665366 v -0.665365 h 0.665366 z m 1.663412,0 H 73.2638 v -6.662772 h 0.665366 v 1.330731 h 0.665366 v 0.665366 h -0.665366 z m 3.331386,-5.997406 h -2.000654 v -0.665366 h 2.000654 z m -2.000654,0.665365 h -0.665366 v -0.665365 h 0.665366 z m 2.670577,0 h -0.669923 v -0.665365 h 0.669923 z m 0.665366,5.332041 h -0.665366 v -5.332041 h 0.665366 z"
         id="text1"
         style="font-size:18.6667px;font-family:NeueBit;-inkscape-font-specification:'NeueBit, Normal';fill:#ebdbb2;stroke-width:1.431;stroke-linecap:square"
         aria-label="written by a human" />
      <path
         d="m -16.446617,-54.768009 h -1.140625 v -11.421875 h 1.140625 v 2.28125 h 1.140625 v 1.140625 h -1.140625 z m 5.710937,-10.28125 h -3.429687 v -1.140625 h 3.429687 z m -3.429687,1.140625 h -1.140625 v -1.140625 h 1.140625 z m 4.5781249,0 H -10.73568 v -1.140625 h 1.1484379 z m 1.140625,9.140625 h -1.140625 v -9.140625 h 1.140625 z m 9.13281247,-10.28125 H -3.8841171 v -1.140625 h 4.57031247 z m -4.57031247,1.140625 h -1.140625 v -1.140625 h 1.140625 z m 5.71875,0 H 0.68619537 v -1.140625 H 1.8346329 Z m -6.859375,6.859375 h -1.140625 v -6.859375 h 1.140625 z m 8,0 h -1.140625 v -6.859375 h 1.140625 z m -6.859375,1.140625 h -1.140625 v -1.140625 h 1.140625 z m 5.71875,0 H 0.68619537 v -1.140625 H 1.8346329 Z m -1.14843753,1.140625 H -3.8841171 v -1.140625 h 4.57031247 z m 6.28125003,-1.140625 h -1.140625 v -9.140625 H 4.1158829 v -1.140625 h 1.7109375 v -3.429688 h 1.140625 v 3.429688 h 2.859375 v 1.140625 h -2.859375 z m 2.859375,1.140625 h -2.859375 v -1.140625 h 2.859375 z m 8.5546876,0 h -1.140625 v -16 h 1.140625 v 6.859375 h 1.140625 v 1.140625 h -1.140625 v 4.578125 h 1.140625 v 1.140625 h -1.140625 z m 5.710937,-10.28125 h -3.429687 v -1.140625 h 3.429687 z m -3.429687,1.140625 h -1.140625 v -1.140625 h 1.140625 z m 4.578125,0 h -1.148438 v -1.140625 h 1.148438 z m 1.140625,6.859375 h -1.140625 v -6.859375 h 1.140625 z m -5.71875,1.140625 h -1.140625 v -1.140625 h 1.140625 z m 4.578125,0 h -1.148438 v -1.140625 h 1.148438 z m -1.148438,1.140625 h -3.429687 v -1.140625 h 3.429687 z m 4.570313,-9.140625 h -1.140625 v -2.28125 h 1.140625 z m 9.140625,0 h -1.140625 v -2.28125 h 1.140625 z m -8,2.289062 h -1.140625 v -2.289062 h 1.140625 z m 6.859375,0 h -1.140625 v -2.289062 h 1.140625 z m -5.71875,2.28125 h -1.140625 v -2.28125 h 1.140625 z m 4.578125,0 h -1.148438 v -2.28125 h 1.148438 z m -3.429688,2.289063 h -1.148437 v -2.289063 h 1.148437 z m 2.28125,0 H 33.23307 v -2.289063 h 1.140625 z m -1.140625,2.28125 h -1.140625 v -2.28125 h 1.140625 z m -1.140625,2.28125 h -1.148437 v -2.28125 h 1.148437 z m -1.148437,1.140625 h -1.140625 v -1.140625 h 1.140625 z m -1.140625,1.148437 h -2.28125 v -1.148437 h 2.28125 z M 46.35807,-65.049259 h -1.140625 v -5.71875 h 1.140625 z m 2.28125,0 h -1.140625 v -5.71875 h 1.140625 z m 7.992188,-3.429688 h -2.28125 v -2.289062 h 2.28125 z m -2.28125,3.429688 H 53.20182 v -3.429688 h 1.148438 z m 3.429687,0 h -1.148437 v -3.429688 h 1.148437 z m -4.578125,3.429687 h -1.140625 v -3.429687 h 1.140625 z m 5.71875,0 h -1.140625 v -3.429687 h 1.140625 z m -6.859375,3.429688 H 50.92057 v -3.429688 h 1.140625 v 1.140625 h 6.859375 v -1.140625 h 1.140625 v 3.429688 H 58.92057 v -1.148438 h -6.859375 z m -1.140625,3.421875 h -1.140625 v -3.421875 h 1.140625 z m 10.28125,0 h -1.140625 v -3.421875 h 1.140625 z m 3.421875,0 H 63.48307 v -16 h 1.140625 z m 2.851563,-10.28125 h -1.140625 v -5.71875 h 1.140625 z m 2.28125,0 h -1.140625 v -5.71875 h 1.140625 z"
         id="text2"
         style="font-size:32px;font-family:NeueBit;-inkscape-font-specification:'NeueBit, Normal';fill:#ebdbb2;stroke-width:1.431;stroke-linecap:square"
         aria-label="not by &quot;AI&quot;" />
    </g>
  </g>
</svg>
